<?xml version="1.0" standalone="no"?>
<!DOCTYPE svg PUBLIC "-//W3C//DTD SVG 20010904//EN"
 "http://www.w3.org/TR/2001/REC-SVG-20010904/DTD/svg10.dtd">
<svg version="1.0" xmlns="http://www.w3.org/2000/svg"
 width="700.000000pt" height="700.000000pt" viewBox="0 0 700.000000 700.000000"
 preserveAspectRatio="xMidYMid meet">
<metadata>
Created by potrace 1.11, written by Peter Selinger 2001-2013
</metadata>
<g transform="translate(0.000000,700.000000) scale(0.100000,-0.100000)"
fill="#000000" stroke="none">
<path d="M1403 6971 c-5 -3 -9 -321 -8 -763 l0 -758 -25 -1 c-14 0 -207 -2
-430 -3 -223 -2 -427 -7 -455 -10 -220 -30 -387 -121 -446 -243 -27 -56 -35
-155 -19 -225 27 -110 80 -204 205 -363 39 -49 78 -101 87 -115 19 -30 38
-121 54 -260 4 -30 8 -62 9 -70 2 -12 15 -15 60 -13 32 1 62 6 68 12 6 6 6 32
-2 73 -6 35 -13 83 -16 108 -3 25 -9 54 -12 64 -6 20 -3 20 142 2 17 -2 53 -7
80 -10 28 -4 60 -9 73 -12 13 -3 22 0 22 8 1 7 3 39 6 71 l6 57 -29 1 c-15 0
-35 2 -43 3 -8 2 -44 6 -80 10 -36 4 -74 9 -85 11 -11 3 -36 7 -56 9 -70 10
-87 24 -194 156 -146 182 -199 335 -149 432 36 69 149 130 282 153 17 3 47 8
65 11 58 12 877 11 878 0 1 -6 2 -740 3 -1631 l1 -1620 51 -5 50 -5 -26 -95
c-24 -84 -114 -406 -201 -720 -16 -58 -31 -112 -33 -121 -3 -9 -13 -47 -25
-85 -11 -38 -29 -103 -40 -144 -11 -41 -27 -99 -35 -127 l-14 -53 414 0 414 0
0 65 0 65 -325 0 c-179 0 -325 3 -325 6 0 3 55 200 122 437 66 238 127 452
133 477 10 36 57 201 81 283 5 16 26 17 252 17 l247 0 150 -262 c83 -143 162
-282 177 -307 15 -25 31 -53 35 -61 4 -8 24 -43 45 -78 21 -34 38 -64 38 -66
0 -2 52 -93 115 -201 63 -109 115 -202 115 -207 0 -5 4 -8 10 -6 13 4 580 568
580 577 0 4 -20 26 -44 50 l-43 42 -229 -225 c-173 -170 -232 -222 -240 -213
-6 7 -66 109 -134 227 -67 118 -156 274 -197 345 -80 139 -96 166 -167 290
-25 44 -46 83 -46 88 0 4 24 7 54 7 l54 0 1 1603 c0 881 0 1616 1 1632 l0 30
689 0 688 0 -23 -86 c-25 -90 -69 -278 -79 -339 -13 -74 -14 -86 -20 -125 -2
-22 -7 -51 -9 -65 -3 -14 -7 -54 -10 -90 -3 -36 -8 -87 -11 -115 -15 -140 -22
-585 -10 -685 2 -19 5 -71 6 -115 2 -72 -1 -89 -35 -175 -58 -144 -113 -318
-156 -490 -49 -198 -65 -292 -95 -545 -14 -118 -37 -198 -114 -394 -23 -58
-41 -110 -41 -117 0 -7 27 -21 60 -33 l61 -20 8 22 c55 148 76 197 82 197 4 0
31 -46 59 -102 29 -57 61 -117 72 -135 l19 -32 58 31 58 31 -27 51 c-52 94
-108 211 -104 215 4 4 24 4 171 -4 81 -3 79 -5 78 80 l0 50 -40 2 c-118 5
-270 12 -274 13 -2 0 0 30 3 67 4 38 9 86 11 108 6 58 12 101 25 180 7 39 14
81 16 95 2 14 10 57 19 95 9 39 18 77 20 85 2 8 8 35 15 60 7 25 14 53 15 62
6 29 78 248 81 245 3 -2 5 -15 19 -92 18 -101 80 -332 121 -453 141 -417 353
-732 619 -922 47 -33 88 -60 90 -60 3 0 24 -11 46 -25 28 -18 39 -31 35 -43
-2 -9 -7 -42 -10 -72 -14 -142 -17 -168 -21 -205 -2 -22 -7 -69 -10 -105 -3
-36 -8 -76 -10 -90 -2 -14 -6 -54 -10 -90 -3 -36 -8 -81 -10 -100 -2 -19 -7
-64 -10 -100 -4 -36 -8 -76 -10 -90 -2 -14 -6 -59 -10 -100 -3 -41 -8 -82 -10
-90 -2 -8 -7 -53 -10 -99 -4 -47 -8 -92 -10 -101 -2 -9 -6 -56 -10 -106 -4
-49 -9 -92 -11 -95 -3 -6 -17 -198 -16 -239 0 -54 2 -60 21 -60 11 0 21 5 23
10 2 6 122 12 323 16 176 3 397 7 490 9 94 2 175 4 182 4 8 1 11 20 10 63 l-3
63 -214 -1 c-118 -1 -324 -4 -457 -7 -134 -2 -241 -2 -239 2 2 3 7 40 11 81 3
41 8 86 10 100 2 14 7 59 10 100 3 41 8 86 10 100 2 14 6 54 10 90 11 116 16
165 20 190 2 14 6 61 10 105 4 44 8 94 10 110 2 17 6 55 9 85 4 30 8 75 11
100 2 25 7 68 10 95 2 28 7 77 10 110 4 33 8 75 10 93 2 18 7 65 11 105 3 40
8 75 10 79 2 3 35 -2 72 -13 148 -45 349 -63 482 -46 121 17 305 79 443 151
36 19 68 32 70 28 3 -4 8 -25 12 -47 11 -53 9 -44 40 -180 26 -115 30 -134 39
-172 3 -10 20 -88 40 -173 95 -418 157 -683 161 -691 10 -15 -19 -22 -150 -34
-66 -6 -150 -14 -205 -20 -19 -2 -66 -7 -105 -11 -38 -3 -79 -7 -91 -9 -11 -2
-52 -6 -90 -9 -104 -10 -143 -14 -207 -22 l-59 -7 6 -51 c3 -28 6 -57 6 -64 0
-14 12 -13 170 3 70 8 129 13 205 20 39 4 81 8 95 10 14 2 66 7 115 11 50 3
98 8 107 9 9 2 49 6 90 9 40 4 93 9 118 11 25 3 70 8 100 11 30 3 56 6 57 8 1
1 -6 38 -16 82 -20 81 -88 384 -95 419 -2 11 -13 58 -25 105 -24 102 -61 265
-67 300 -3 14 -7 32 -10 40 -3 8 -9 35 -14 60 -5 25 -21 95 -35 155 -14 61
-27 119 -30 130 -2 11 -13 58 -24 105 -10 47 -18 85 -18 85 1 1 34 26 72 57
87 69 198 177 250 243 22 28 45 55 52 60 24 21 146 219 202 327 63 123 106
227 157 383 l32 100 2 -60 c2 -33 4 -82 5 -110 1 -27 5 -142 10 -255 4 -113 8
-232 10 -265 2 -33 6 -139 10 -235 4 -96 9 -178 11 -182 9 -14 -21 -21 -110
-25 -50 -2 -111 -6 -136 -8 -25 -1 -58 -3 -73 -4 -28 -1 -28 -1 -25 -63 l4
-63 127 2 c70 1 127 0 127 -2 0 -6 -107 -211 -126 -242 -13 -21 -12 -24 18
-40 29 -15 88 -43 92 -43 0 0 33 61 71 135 39 74 72 135 75 135 3 0 23 -48 45
-106 22 -58 44 -108 48 -111 4 -2 35 8 67 23 60 27 73 46 46 68 -11 10 -84
184 -101 243 -17 61 -21 112 -30 353 -3 91 -8 203 -10 250 -3 47 -7 146 -10
220 -2 74 -7 191 -10 260 -3 69 -8 163 -10 210 -15 340 -18 461 -16 575 9 343
4 565 -14 675 -2 14 -7 43 -9 65 -61 489 -194 959 -368 1294 -131 252 -275
427 -467 567 -104 76 -295 154 -411 169 -29 4 -62 9 -74 11 -48 11 -278 10
-361 -2 -337 -47 -600 -173 -824 -394 -174 -172 -312 -377 -406 -602 -18 -43
-34 -68 -44 -69 -81 -3 -1411 -3 -1411 1 -1 3 -1 348 -2 767 l-1 762 -498 0
c-273 -1 -501 -4 -506 -8z m321 -216 c56 -37 58 -124 5 -169 -31 -26 -44 -30
-89 -26 -54 5 -90 49 -90 112 0 84 100 131 174 83z m445 -1 c57 -48 48 -132
-21 -174 -88 -53 -192 40 -153 136 28 67 116 87 174 38z m2974 -574 c19 -17
37 -42 40 -57 10 -55 -33 -118 -89 -129 -41 -8 -68 1 -99 32 -98 98 44 246
148 154z m-358 -11 c43 -44 38 -132 -8 -162 -99 -64 -222 36 -168 136 32 60
129 74 176 26z m-3179 -276 c27 -42 125 -137 169 -165 118 -72 203 -68 288 15
29 29 66 73 81 100 l28 47 29 -17 c16 -10 29 -21 29 -26 0 -4 -18 -34 -39 -65
-126 -184 -269 -221 -448 -117 -49 29 -167 141 -199 190 -17 27 -17 28 7 46
31 24 34 24 55 -8z m3084 -129 c84 -86 166 -117 228 -87 17 8 50 37 73 64 33
39 46 48 63 43 12 -3 25 -10 29 -14 22 -20 -67 -125 -130 -155 -47 -23 -89
-25 -147 -8 -64 19 -87 34 -163 106 l-62 60 22 18 c12 10 27 18 32 19 6 0 31
-21 55 -46z m836 -215 c154 -38 267 -144 368 -346 110 -220 166 -457 203 -863
10 -108 9 -480 -1 -585 -5 -44 -9 -95 -11 -112 -2 -18 -5 -48 -9 -65 -3 -18
-8 -49 -11 -68 -13 -80 -59 -251 -93 -340 -119 -316 -307 -540 -521 -621 -45
-17 -68 -20 -116 -14 -364 40 -607 427 -681 1085 -3 25 -9 72 -14 105 -9 68
-6 572 5 655 14 115 46 307 61 365 56 218 148 417 244 529 72 85 99 112 150
150 148 113 296 157 426 125z"/>
</g>
</svg>
